<svg width="200" height="60" viewBox="0 0 200 60" fill="none" xmlns="http://www.w3.org/2000/svg">
<rect width="200" height="60" fill="transparent"/>
<g clip-path="url(#clip0_65_228)">
<path d="M3.9517 21.6833H0V18.4618H3.9517V12.3195H7.47388V18.4618H13.0149V21.6833H7.47388V34.6123C7.47388 35.5286 7.64569 36.1872 7.98932 36.5881C8.36158 36.9603 8.99157 37.1464 9.87926 37.1465H13.7021V40.368H9.66449C7.60273 40.368 6.128 39.9098 5.24031 38.9934C4.38123 38.0771 3.95169 36.631 3.9517 34.6551V21.6833Z" fill="black"/>
<path d="M25.0502 40.6256C23.0685 40.6604 21.1126 40.1714 19.3803 39.2082C17.7604 38.276 16.4356 36.9065 15.5575 35.2566C14.6411 33.5671 14.183 31.6199 14.183 29.4149C14.183 27.2099 14.6411 25.2627 15.5575 23.5732C16.4356 21.9233 17.7604 20.5538 19.3803 19.6215C21.1126 18.6583 23.0685 18.1694 25.0502 18.2041C27.1692 18.2041 29.0448 18.6765 30.6771 19.6215C32.3157 20.5437 33.6569 21.9147 34.5428 23.5732C35.4592 25.2627 35.9174 27.21 35.9174 29.4149C35.9174 31.6198 35.4592 33.567 34.5428 35.2565C33.6569 36.915 32.3157 38.286 30.6771 39.2082C29.0449 40.1533 27.1693 40.6257 25.0502 40.6256ZM25.0502 37.4902C26.3831 37.5174 27.6956 37.1594 28.8301 36.4592C29.9493 35.7693 30.8445 34.7696 31.4072 33.5813C32.024 32.2803 32.3327 30.8546 32.3092 29.4149C32.3327 27.9752 32.024 26.5495 31.4072 25.2484C30.8445 24.0601 29.9493 23.0605 28.8301 22.3705C27.6956 21.6703 26.3831 21.3124 25.0502 21.3397C23.7042 21.3163 22.379 21.6736 21.2273 22.3705C20.1275 23.071 19.2488 24.0688 18.6931 25.2484C18.0763 26.5495 17.7676 27.9752 17.791 29.4149C17.7677 30.8546 18.0763 32.2803 18.6931 33.5813C19.2488 34.7609 20.1275 35.7588 21.2273 36.4592C22.379 37.1562 23.7042 37.5135 25.0502 37.4902Z" fill="black"/>
<path d="M60.0393 18.4618V39.2941C60.0393 45.909 56.4169 49.2164 49.1721 49.2164C46.3373 49.2164 44.0178 48.5721 42.2137 47.2834C40.4383 45.9949 39.4075 44.1622 39.1211 41.7855H42.7293C42.8526 42.4387 43.1112 43.0589 43.4884 43.6063C43.8657 44.1537 44.3533 44.6162 44.9198 44.9639C46.0939 45.7085 47.5973 46.0808 49.4299 46.0807C54.1547 46.0807 56.5171 43.7756 56.5172 39.1654V36.5881C54.9423 39.2798 52.4367 40.6256 49.0004 40.6256C47.0978 40.6579 45.219 40.1993 43.5452 39.2941C41.9547 38.3904 40.6575 37.0485 39.8084 35.4283C38.9206 33.7388 38.4767 31.7344 38.4768 29.4149C38.4768 27.2099 38.9207 25.2627 39.8084 23.5732C40.6787 21.9318 41.9871 20.5639 43.5883 19.6215C45.2301 18.6663 47.1011 18.1763 49.0004 18.2041C50.7757 18.2041 52.2934 18.562 53.5534 19.2779C54.807 19.9587 55.8364 20.9881 56.5172 22.2417L56.9897 18.4618L60.0393 18.4618ZM49.344 37.4902C50.6572 37.5142 51.9512 37.1721 53.0809 36.5022C54.1919 35.8213 55.0859 34.8379 55.6582 33.6672C56.2749 32.3661 56.5836 30.9405 56.5602 29.5008C56.5866 28.047 56.2779 26.6067 55.6582 25.2914C55.1048 24.0856 54.2084 23.0697 53.0809 22.3705C51.9606 21.6742 50.6629 21.3162 49.344 21.3397C47.1677 21.3397 45.4066 22.0985 44.0608 23.6162C42.7435 25.1052 42.0849 27.0381 42.0848 29.4149C42.0848 31.7917 42.7435 33.7389 44.0608 35.2565C45.4066 36.7456 47.1677 37.4901 49.344 37.4902Z" fill="black"/>
<path d="M63.3579 29.4149C63.3579 27.1813 63.7874 25.2197 64.6464 23.5303C65.4778 21.9003 66.76 20.5435 68.3405 19.6215C69.9795 18.6594 71.8524 18.1688 73.7526 18.204C75.757 18.204 77.5324 18.6193 79.0788 19.4497C80.6191 20.2741 81.8873 21.5274 82.7298 23.0578C83.6174 24.6327 84.0899 26.4797 84.1473 28.5987C84.1473 28.9137 84.1186 29.4148 84.0614 30.102H67.0518V30.4028C67.1091 32.5504 67.7677 34.2685 69.0276 35.5572C70.2876 36.8459 71.9342 37.4902 73.9673 37.4901C75.5422 37.4901 76.8738 37.1035 77.962 36.3303C79.0778 35.5301 79.8702 34.3569 80.1956 33.0229H83.7606C83.3756 35.1807 82.2332 37.1302 80.5391 38.5209C78.821 39.924 76.7163 40.6256 74.2249 40.6256C72.0486 40.6256 70.1444 40.1675 68.5122 39.2512C66.8923 38.3189 65.5675 36.9494 64.6895 35.2994C63.8017 33.5813 63.3578 31.6198 63.3579 29.4149ZM80.4962 27.1813C80.3243 25.32 79.6228 23.8739 78.3915 22.843C77.1889 21.8121 75.6568 21.2967 73.7954 21.2967C72.1832 21.2786 70.6217 21.8604 69.4143 22.9289C68.7937 23.4612 68.2844 24.1109 67.9158 24.8407C67.5472 25.5705 67.3266 26.3659 67.2665 27.1813L80.4962 27.1813Z" fill="black"/>
<path d="M88.6688 21.6833H84.7172V18.4618H88.6688V12.3195H92.1909V18.4618H97.7319V21.6833H92.1909V34.6123C92.1909 35.5286 92.3628 36.1872 92.7065 36.5881C93.0787 36.9603 93.7087 37.1464 94.5965 37.1465H98.4192V40.368H94.3817C92.3198 40.368 90.8451 39.9098 89.9575 38.9934C89.0983 38.0771 88.6687 36.631 88.6688 34.6551V21.6833Z" fill="black"/>
<path d="M110.957 18.2041C113.62 18.2041 115.768 19.0059 117.4 20.6094C119.032 22.213 119.848 24.733 119.848 28.1692V40.368H116.326V28.384C116.326 26.1218 115.811 24.4037 114.78 23.2296C113.749 22.0269 112.274 21.4256 110.356 21.4256C108.322 21.4256 106.705 22.1415 105.502 23.5732C104.328 25.005 103.741 26.9522 103.741 29.4149V40.368H100.219V10.3007H103.741V22.0699C104.452 20.9287 105.424 19.972 106.576 19.2779C107.778 18.562 109.239 18.2041 110.957 18.2041Z" fill="black"/>
<path d="M122.858 29.4149C122.858 27.1813 123.288 25.2197 124.147 23.5303C124.978 21.9003 126.261 20.5435 127.841 19.6215C129.48 18.6594 131.353 18.1688 133.253 18.204C135.257 18.204 137.033 18.6193 138.579 19.4497C140.12 20.2741 141.388 21.5274 142.23 23.0578C143.118 24.6327 143.59 26.4797 143.648 28.5987C143.648 28.9137 143.619 29.4148 143.562 30.102H126.552V30.4028C126.61 32.5504 127.268 34.2685 128.528 35.5572C129.788 36.8459 131.435 37.4902 133.468 37.4901C135.043 37.4901 136.374 37.1035 137.463 36.3303C138.578 35.5302 139.371 34.3569 139.696 33.0229H143.261C142.876 35.1807 141.734 37.1302 140.04 38.5209C138.322 39.924 136.217 40.6256 133.725 40.6256C131.549 40.6256 129.645 40.1675 128.013 39.2512C126.393 38.3189 125.068 36.9494 124.19 35.2994C123.302 33.5813 122.858 31.6198 122.858 29.4149ZM139.997 27.1813C139.825 25.32 139.123 23.8739 137.892 22.843C136.689 21.8121 135.157 21.2967 133.296 21.2967C131.684 21.2786 130.122 21.8604 128.915 22.9289C128.294 23.4612 127.785 24.1109 127.416 24.8407C127.048 25.5704 126.827 26.3659 126.767 27.1813H139.997Z" fill="black"/>
<path d="M158.085 18.4618V21.898H156.324C154.234 21.898 152.731 22.5996 151.814 24.0028C150.927 25.4059 150.483 27.1384 150.483 29.2002V40.368H146.96V18.4618H150.01L150.483 21.7692C151.095 20.7838 151.935 19.9591 152.931 19.3638C153.933 18.7625 155.322 18.4618 157.098 18.4618H158.085Z" fill="black"/>
<path d="M193.961 37.1466V40.3681H192.027C190.624 40.3681 189.621 40.0817 189.02 39.5089C188.419 38.9362 188.105 38.0914 188.076 36.9746C186.386 39.4087 183.938 40.6257 180.731 40.6257C178.297 40.6257 176.335 40.053 174.846 38.9076C173.386 37.7623 172.655 36.2016 172.656 34.2257C172.656 32.0208 173.4 30.3313 174.889 29.1572C176.407 27.9831 178.597 27.3961 181.461 27.3961H187.904V25.8927C187.904 24.461 187.417 23.3442 186.444 22.5424C185.499 21.7406 184.167 21.3397 182.449 21.3397C180.931 21.3397 179.671 21.6833 178.669 22.3706C178.205 22.6705 177.806 23.0609 177.496 23.5184C177.186 23.976 176.971 24.4913 176.865 25.0337H173.343C173.6 22.886 174.545 21.2108 176.178 20.0081C177.839 18.8055 179.986 18.2041 182.621 18.2041C185.427 18.2041 187.589 18.8914 189.106 20.2659C190.652 21.6117 191.426 23.559 191.427 26.1075V35.5572C191.427 36.6167 191.914 37.1465 192.887 37.1465L193.961 37.1466ZM187.904 30.3599H181.117C177.853 30.3599 176.221 31.5769 176.221 34.0109C176.207 34.5193 176.317 35.0235 176.542 35.4799C176.766 35.9363 177.098 36.3313 177.509 36.631C178.368 37.2897 179.528 37.6191 180.988 37.6191C183.136 37.6191 184.826 37.0607 186.057 35.9439C187.288 34.7983 187.904 33.2949 187.904 31.4337V30.3599Z" fill="black"/>
<path d="M197.723 9.99997C198.025 9.99005 198.325 10.0421 198.606 10.153C198.887 10.2639 199.142 10.4312 199.355 10.6446C199.568 10.858 199.736 11.113 199.847 11.3937C199.958 11.6743 200.01 11.9748 200 12.2765C200.006 12.5792 199.951 12.8799 199.839 13.1612C199.727 13.4425 199.561 13.6987 199.349 13.9148C199.137 14.1309 198.884 14.3026 198.605 14.4197C198.325 14.5369 198.026 14.5973 197.723 14.5973C197.42 14.5973 197.121 14.5369 196.841 14.4197C196.562 14.3026 196.309 14.1309 196.097 13.9148C195.885 13.6987 195.719 13.4425 195.607 13.1612C195.495 12.8799 195.44 12.5792 195.446 12.2765C195.436 11.9748 195.488 11.6744 195.599 11.3937C195.71 11.113 195.878 10.858 196.091 10.6447C196.304 10.4313 196.559 10.2639 196.84 10.153C197.121 10.0422 197.421 9.99006 197.723 9.99997ZM195.962 18.4618H199.484V40.368H195.962V18.4618Z" fill="black"/>
<path d="M165.769 37.0325C165.777 37.702 165.586 38.3587 165.22 38.9192C164.853 39.4798 164.329 39.9189 163.713 40.1807C163.097 40.4424 162.417 40.5151 161.759 40.3895C161.101 40.2638 160.496 39.9455 160.02 39.475C159.543 39.0045 159.218 38.403 159.084 37.7469C158.951 37.0909 159.015 36.41 159.269 35.7907C159.524 35.1714 159.956 34.6416 160.513 34.2688C161.069 33.896 161.723 33.697 162.393 33.697C163.283 33.6916 164.138 34.04 164.771 34.6655C165.405 35.2911 165.763 36.1425 165.769 37.0325Z" fill="#0F6FFF"/>
</g>
<defs>
<clipPath id="clip0_65_228">
<rect width="200" height="39.2164" fill="white" transform="translate(0 10)"/>
</clipPath>
</defs>
</svg>
