<svg width="200" height="60" viewBox="0 0 200 60" fill="none" xmlns="http://www.w3.org/2000/svg">
<rect width="200" height="60" fill="transparent"/>
<g clip-path="url(#clip0_65_200)">
<path d="M67.1819 29.5952C67.1819 37.2797 72.1365 42.6377 79.0021 42.6377C85.8677 42.6377 90.8223 37.2797 90.8223 29.5952C90.8223 21.9107 85.8677 16.5527 79.0021 16.5527C72.1365 16.5527 67.1819 21.9107 67.1819 29.5952ZM86.2924 29.5952C86.2924 35.0942 83.2843 38.6545 79.0021 38.6545C74.7199 38.6545 71.7118 35.0942 71.7118 29.5952C71.7118 24.0962 74.7199 20.536 79.0021 20.536C83.2843 20.536 86.2924 24.0962 86.2924 29.5952Z" fill="black"/>
<path d="M103.579 42.6377C108.781 42.6377 111.754 38.2667 111.754 33.0145C111.754 27.7622 108.781 23.3912 103.579 23.3912C101.172 23.3912 99.4028 24.343 98.2349 25.7177V23.7437H93.9882V48.595H98.2349V40.3112C99.4028 41.686 101.172 42.6377 103.579 42.6377ZM98.1288 32.4857C98.1288 28.996 100.111 27.0925 102.729 27.0925C105.808 27.0925 107.472 29.4895 107.472 33.0145C107.472 36.5395 105.808 38.9365 102.729 38.9365C100.111 38.9365 98.1288 36.9977 98.1288 33.5785V32.4857Z" fill="black"/>
<path d="M123.247 42.6377C126.963 42.6377 129.9 40.699 131.209 37.456L127.564 36.0812C126.998 37.9847 125.335 39.0422 123.247 39.0422C120.522 39.0422 118.611 37.1035 118.292 33.931H131.316V32.521C131.316 27.445 128.449 23.3912 123.07 23.3912C117.69 23.3912 114.222 27.586 114.222 33.0145C114.222 38.725 117.938 42.6377 123.247 42.6377ZM123.034 26.9515C125.724 26.9515 126.998 28.714 127.033 30.7585H118.504C119.141 28.2557 120.84 26.9515 123.034 26.9515Z" fill="black"/>
<path d="M134.502 42.25H138.749V31.393C138.749 28.7492 140.695 27.3392 142.606 27.3392C144.942 27.3392 145.862 28.996 145.862 31.2872V42.25H150.109V30.0535C150.109 26.0702 147.773 23.3912 143.88 23.3912C141.474 23.3912 139.811 24.484 138.749 25.7177V23.7437H134.502V42.25Z" fill="black"/>
<path d="M162.547 16.9405L152.921 42.25H157.416L159.574 36.469H170.545L172.739 42.25H177.305L167.679 16.9405H162.547ZM165.024 21.946L169.059 32.521H161.061L165.024 21.946Z" fill="black"/>
<path d="M184.595 17.0139H180.065V42.3234H184.595V17.0139Z" fill="black"/>
<path d="M56.8038 26.2362C57.8743 23.0358 57.5057 19.5299 55.7937 16.6188C53.2191 12.1538 48.0433 9.85669 42.9885 10.9377C40.7398 8.41438 37.509 6.97941 34.1219 6.99997C28.955 6.98822 24.3705 10.3017 22.7809 15.1985C19.4616 15.8756 16.5965 17.9451 14.9199 20.8782C12.3262 25.3314 12.9175 30.945 16.3827 34.7638C15.3122 37.9642 15.6808 41.4701 17.3928 44.3811C19.9674 48.8461 25.1432 51.1433 30.198 50.0623C32.4453 52.5856 35.6775 54.0205 39.0646 53.9985C44.2345 54.0117 48.8204 50.6953 50.41 45.7941C53.7293 45.117 56.5944 43.0475 58.271 40.1144C60.8618 35.6612 60.2691 30.052 56.8053 26.2333L56.8038 26.2362ZM39.0676 50.9274C36.9988 50.9303 34.9948 50.2091 33.4067 48.8887C33.479 48.8505 33.6043 48.7815 33.6854 48.7316L43.0814 43.3266C43.5621 43.0549 43.857 42.5452 43.8541 41.9944V28.8006L47.8251 31.0845C47.8679 31.1051 47.8959 31.1462 47.9018 31.1932V42.1193C47.8959 46.9779 43.9455 50.9171 39.0676 50.9274ZM20.0692 42.8448C19.0325 41.0618 18.6595 38.9717 19.0148 36.9434C19.0841 36.9845 19.2065 37.0594 19.2935 37.1094L28.6895 42.5144C29.1658 42.7919 29.7556 42.7919 30.2334 42.5144L41.7041 35.9167V40.4845C41.7071 40.5315 41.685 40.5771 41.6481 40.6064L32.1504 46.0687C27.9198 48.4951 22.5169 47.0528 20.0706 42.8448H20.0692ZM17.5963 22.416C18.6285 20.63 20.2579 19.264 22.1984 18.5546C22.1984 18.6354 22.194 18.7779 22.194 18.8778V29.6892C22.1911 30.2385 22.486 30.7482 22.9652 31.0199L34.4359 37.6161L30.4649 39.9C30.4251 39.9264 30.375 39.9308 30.3307 39.9117L20.8315 34.445C16.6098 32.0098 15.1618 26.6298 17.5948 22.4174L17.5963 22.416ZM50.2228 29.9786L38.752 23.3809L42.7231 21.0985C42.7629 21.0721 42.813 21.0677 42.8573 21.0868L52.3565 26.549C56.5856 28.9828 58.0351 34.3716 55.5917 38.584C54.558 40.367 52.9301 41.733 50.991 42.4439V31.3093C50.9954 30.7599 50.702 30.2518 50.2242 29.9786H50.2228ZM54.1746 24.0536C54.1053 24.011 53.9829 23.9376 53.8959 23.8877L44.4999 18.4827C44.0236 18.2051 43.4338 18.2051 42.9561 18.4827L31.4853 25.0803V20.5125C31.4824 20.4655 31.5045 20.4199 31.5414 20.3906L41.0391 14.9327C45.2697 12.5019 50.6784 13.9486 53.1174 18.1639C54.1481 19.9441 54.5212 22.0282 54.1717 24.0536H54.1746ZM29.3265 32.1949L25.354 29.911C25.3113 29.8904 25.2833 29.8493 25.2774 29.8023V18.8763C25.2803 14.0118 29.2425 10.0697 34.1263 10.0726C36.1922 10.0726 38.1917 10.7952 39.7798 12.1112C39.7076 12.1494 39.5837 12.2184 39.5011 12.2684L30.1051 17.6734C29.6244 17.9451 29.3295 18.4533 29.3324 19.0041L29.3265 32.192V32.1949ZM31.4838 27.5625L36.5933 24.6235L41.7027 27.561V33.4375L36.5933 36.375L31.4838 33.4375V27.5625Z" fill="black"/>
</g>
<defs>
<clipPath id="clip0_65_200">
<rect width="174" height="47" fill="white" transform="translate(13 7)"/>
</clipPath>
</defs>
</svg>
